<svg xmlns="http://www.w3.org/2000/svg" width="760" height="360" viewBox="0 0 760 360">
<rect width="100%" height="100%" fill="white"/>
<text x="380.0" y="20" text-anchor="middle" font-family="Arial" font-size="16">Estimated Token-Length Distribution of Cleaned SVG Files</text>
<line x1="70" y1="290" x2="740" y2="290" stroke="black" stroke-width="1"/>
<line x1="70" y1="290" x2="70" y2="30" stroke="black" stroke-width="1"/>
<line x1="65" y1="290.0" x2="70" y2="290.0" stroke="black"/>
<text x="62" y="294.0" text-anchor="end" font-family="Arial" font-size="11">0</text>
<line x1="65" y1="225.0" x2="70" y2="225.0" stroke="black"/>
<text x="62" y="229.0" text-anchor="end" font-family="Arial" font-size="11">18,210</text>
<line x1="65" y1="160.0" x2="70" y2="160.0" stroke="black"/>
<text x="62" y="164.0" text-anchor="end" font-family="Arial" font-size="11">36,421</text>
<line x1="65" y1="95.0" x2="70" y2="95.0" stroke="black"/>
<text x="62" y="99.0" text-anchor="end" font-family="Arial" font-size="11">54,632</text>
<line x1="65" y1="30.0" x2="70" y2="30.0" stroke="black"/>
<text x="62" y="34.0" text-anchor="end" font-family="Arial" font-size="11">72,843</text>
<rect x="74.0" y="30.0" width="59.0" height="260.0" fill="#4c78a8"/>
<text x="103.5" y="306" text-anchor="end" transform="rotate(-35 103.5,306)" font-family="Arial" font-size="10">82-278</text>
<rect x="141.0" y="150.9" width="59.0" height="139.1" fill="#4c78a8"/>
<text x="170.5" y="306" text-anchor="end" transform="rotate(-35 170.5,306)" font-family="Arial" font-size="10">279-475</text>
<rect x="208.0" y="223.5" width="59.0" height="66.5" fill="#4c78a8"/>
<text x="237.5" y="306" text-anchor="end" transform="rotate(-35 237.5,306)" font-family="Arial" font-size="10">476-672</text>
<rect x="275.0" y="250.5" width="59.0" height="39.5" fill="#4c78a8"/>
<text x="304.5" y="306" text-anchor="end" transform="rotate(-35 304.5,306)" font-family="Arial" font-size="10">673-869</text>
<rect x="342.0" y="263.0" width="59.0" height="27.0" fill="#4c78a8"/>
<text x="371.5" y="306" text-anchor="end" transform="rotate(-35 371.5,306)" font-family="Arial" font-size="10">870-1066</text>
<rect x="409.0" y="270.8" width="59.0" height="19.2" fill="#4c78a8"/>
<text x="438.5" y="306" text-anchor="end" transform="rotate(-35 438.5,306)" font-family="Arial" font-size="10">1067-1263</text>
<rect x="476.0" y="276.3" width="59.0" height="13.7" fill="#4c78a8"/>
<text x="505.5" y="306" text-anchor="end" transform="rotate(-35 505.5,306)" font-family="Arial" font-size="10">1264-1460</text>
<rect x="543.0" y="280.9" width="59.0" height="9.1" fill="#4c78a8"/>
<text x="572.5" y="306" text-anchor="end" transform="rotate(-35 572.5,306)" font-family="Arial" font-size="10">1461-1657</text>
<rect x="610.0" y="284.4" width="59.0" height="5.6" fill="#4c78a8"/>
<text x="639.5" y="306" text-anchor="end" transform="rotate(-35 639.5,306)" font-family="Arial" font-size="10">1658-1854</text>
<rect x="677.0" y="286.7" width="59.0" height="3.3" fill="#4c78a8"/>
<text x="706.5" y="306" text-anchor="end" transform="rotate(-35 706.5,306)" font-family="Arial" font-size="10">1855-2051</text>
<text x="405.0" y="340" text-anchor="middle" font-family="Arial" font-size="12">Estimated tokens per SVG</text>
<text x="20" y="160.0" transform="rotate(-90 20,160.0)" text-anchor="middle" font-family="Arial" font-size="12">File count</text>
</svg>