<svg xmlns="http://www.w3.org/2000/svg" viewBox="0 0 24 24" height="200px" width="200px"><path fill="none" stroke="black" stroke-width="0.3" stroke-opacity="1" filling="0" d="M11.240625381469727 9.2 L11.240625381469727 9.2 C11.803125381469727 9.4 12.3 9.7 12.9 9.7 C13.48851203918457 9.7 14 9 14.5 9.2 C15.0665864944458 9.4 15.1 10.2 15.5 10.6 C16.027677536010742 10.9 16.9 10.7 17.2 11.2 C17.56606674194336 11.6 17.1 12.3 17.2 12.8 C17.411800384521484 13.4 18.2 13.7 18.2 14.3 C18.243749618530273 14.8 17.4 15.1 17.2 15.6 C17.049039840698242 16.2 17.6 16.9 17.2 17.4 C16.88169288635254 17.9 16 17.6 15.5 17.9 C15.080225944519043 18.2 15.1 19.1 14.5 19.3 C13.9979248046875 19.4 13.5 18.8 12.9 18.8 C12.340858459472656 18.8 11.8 19.4 11.2 19.3 C10.703729629516602 19.1 10.7 18.2 10.2 17.9 C9.771125793457031 17.6 8.9 17.9 8.6 17.4 C8.285099029541016 16.9 8.8 16.2 8.6 15.6 C8.45146656036377 15.1 7.6 14.8 7.6 14.3 C7.612500190734863 13.7 8.4 13.4 8.6 12.8 C8.79853343963623 12.3 8.3 11.6 8.6 11.2 C8.952735900878906 10.7 9.8 10.9 10.2 10.6 C10.6798677444458 10.2 10.9 9.7 11.2 9.2 L11.240625381469727 9.2"></path><path fill="none" stroke="black" stroke-width="0.3" stroke-opacity="1" filling="0" d="M10.987500190734863 12.3 L12.421875 13.8"></path><path fill="none" stroke="black" stroke-width="0.3" stroke-opacity="1" filling="0" d="M13.434374809265137 13.8 L14.868749618530273 12.3"></path><path fill="none" stroke="black" stroke-width="0.3" stroke-opacity="1" filling="0" d="M13.434374809265137 14.7 L14.868749618530273 16.2"></path><path fill="none" stroke="black" stroke-width="0.3" stroke-opacity="1" filling="0" d="M10.987500190734863 16.2 L12.421875 14.7"></path></svg>