<svg xmlns="http://www.w3.org/2000/svg" viewBox="0 0 24 24" height="200px" width="200px"><path fill="none" stroke="black" stroke-width="0.3" stroke-opacity="1" filling="0" d="M6.697199821472168 12.9 L7.647600173950195 12 C7.179515838623047 13.5 6.8 16.6 7.3 19.1 C7.806490421295166 21.5 9.1 23.3 12 22.2 L11.967599868774414 22.2 C12.168904304504395 21.8 12.8 20.5 12.8 20 C12.885234832763672 18.8 12.7 17.5 12.6 16.2 C12.58503532409668 14.9 12.7 13.6 13.5 12.6 L14.494800567626953 11.7 C14.700432777404785 13.2 14.7 14.7 14.4 16.3 C14.107172012329102 17.9 13.2 19.6 14.4 21 C15.039070129394531 21.7 16.5 21.5 17.1 21.5 L16.158000946044922 22.4 C14.327993392944336 22.4 13.8 22.6 13 21.1 L13.026000022888184 21.1 C12.910799980163574 21.3 12.8 21.5 12.7 21.7 L11.729999542236328 22.6 C11.23859977722168 22.9 10.8 23.4 10.3 23.5 C8.551033020019531 24 7.2 22.4 6.6 21 C6.093306064605713 19.8 5.9 18.4 6 17 C6.036853790283203 15.6 6.3 14.2 6.7 12.9 L6.697199821472168 12.9"></path><path fill="none" stroke="black" stroke-width="0.3" stroke-opacity="1" filling="0" d="M13.738800048828125 13.7 L13.738800048828125 13.7 C13.659482955932617 14.6 13.6 15.4 13.6 16.3 L13.587599754333496 16.3 C13.669929504394531 15.4 13.7 14.6 13.7 13.7 L13.738800048828125 13.7"></path></svg>