<svg xmlns="http://www.w3.org/2000/svg" viewBox="0 0 24 24" height="200px" width="200px"><path fill="none" stroke="black" stroke-width="0.3" stroke-opacity="1" filling="0" d="M13.434374809265137 5.2 L13.434374809265137 5.2 C13.434374809265137 6.7 13.4 6.7 13.4 5.2 L13.434374809265137 5.2"></path><path fill="none" stroke="black" stroke-width="0.3" stroke-opacity="1" filling="0" d="M13.434374809265137 5.8 L13.434374809265137 5.8 C15.148247718811035 7 16.7 7.6 18.8 8 L18.75 8 C17.47213363647461 9.4 16 9.1 14.2 9 C11.9575834274292 9 9.7 9.7 8 8 L8.034375190734863 8 C10.10764217376709 7.6 11.7 7 13.4 5.8 L13.434374809265137 5.8"></path><path fill="none" stroke="black" stroke-width="0.3" stroke-opacity="1" filling="0" d="M13.434374809265137 6.2 L13.434374809265137 6.2 C15.047603607177734 7.3 16.5 7.8 18.4 8.2 L18.412500381469727 8.2 C17.990625381469727 8.4 17.6 8.5 17.1 8.7 L13.392187118530273 8.7 L9.637499809265137 8.7 C9.215624809265137 8.5 8.8 8.4 8.4 8.2 L8.371874809265137 8.2 C10.307226181030273 7.8 11.8 7.3 13.4 6.2 L13.434374809265137 6.2"></path><path fill="none" stroke="black" stroke-width="0.3" stroke-opacity="1" filling="0" d="M13.434374809265137 6.5 L13.434374809265137 6.5 C14.856711387634277 7.4 16.2 8 17.8 8.4 L17.821874618530273 8.4 C17.596874237060547 8.4 17.4 8.4 17.1 8.5 L13.392187118530273 8.5 L9.637499809265137 8.5 C9.440625190734863 8.4 9.2 8.4 9 8.4 L9.046875 8.4 C10.671388626098633 7.9 12 7.4 13.4 6.5 L13.434374809265137 6.5"></path><path fill="none" stroke="black" stroke-width="0.3" stroke-opacity="1" filling="0" d="M18.243749618530273 7.4 L18.243749618530273 7.4 C18.243749618530273 8.8 18.2 8.8 18.2 7.4 L18.243749618530273 7.4"></path><path fill="none" stroke="black" stroke-width="0.3" stroke-opacity="1" filling="0" d="M8.962499618530273 7.5 L8.962499618530273 7.5 C7.950000286102295 8.5 8 8.5 9 7.5 L8.962499618530273 7.5"></path><path fill="none" stroke="black" stroke-width="0.3" stroke-opacity="1" filling="0" d="M10.228124618530273 8.5 L16.640625 8.5 C16.809375762939453 8.7 17 8.9 17.1 9 L17.146875381469727 10.6 C16.978124618530273 10.8 16.8 11 16.6 11.2 L10.228124618530273 11.2 C10.03125 11 9.8 10.8 9.6 10.6 L9.637499809265137 9 C9.83437442779541 8.9 10 8.7 10.2 8.5 L10.228124618530273 8.5"></path><path fill="none" stroke="black" stroke-width="0.3" stroke-opacity="1" filling="0" d="M10.228124618530273 8.7 L16.640625 8.7 C16.725000381469727 8.8 16.8 8.9 16.9 9 L16.893749237060547 10.6 C16.80937385559082 10.7 16.7 10.8 16.6 10.9 L10.228124618530273 10.9 C10.143750190734863 10.8 10.1 10.7 10 10.6 L9.975000381469727 9 C10.059374809265137 8.9 10.1 8.8 10.2 8.7 L10.228124618530273 8.7"></path><path fill="none" stroke="black" stroke-width="0.3" stroke-opacity="1" filling="0" d="M16.640625 9 L16.640625 10.6 L10.228124618530273 10.6 L10.228124618530273 9 L16.640625 9"></path><path fill="none" stroke="black" stroke-width="0.3" stroke-opacity="1" filling="0" d="M11.324999809265137 9.6 L12.337499618530273 9.6 L12.337499618530273 10.6 L11.324999809265137 10.6"></path><path fill="none" stroke="black" stroke-width="0.3" stroke-opacity="1" filling="0" d="M14.53125 9.6 L15.543749809265137 9.6 L15.543749809265137 10.6 L14.53125 10.6"></path><path fill="none" stroke="black" stroke-width="0.3" stroke-opacity="1" filling="0" d="M9.637499809265137 10.6 L13.392187118530273 10.6 L17.146875381469727 10.6 C17.880298614501953 11.4 18.8 12 19.8 12.3 L19.846874237060547 12.3 C19.48675537109375 12.8 18.9 13.1 18.2 13.3 L15.037500381469727 13.3 C13.96875 13.3 12.9 13.3 11.8 13.3 L8.625 13.3 C8.006461143493652 13.1 7.4 12.8 7 12.3 L7.021874904632568 12.3 C8.006174087524414 12 8.9 11.4 9.6 10.6 L9.637499809265137 10.6"></path><path fill="none" stroke="black" stroke-width="0.3" stroke-opacity="1" filling="0" d="M9.806249618530273 10.9 L16.978124618530273 10.9 C17.69109344482422 11.6 18.6 12.2 19.5 12.5 L19.509374618530273 12.5 C19.087499618530273 12.7 18.7 12.8 18.2 13 L13.434374809265137 13 L8.625 13 C8.203125 12.8 7.8 12.7 7.4 12.5 L7.359375 12.5 C8.275157928466797 12.2 9.1 11.6 9.8 10.9 L9.806249618530273 10.9"></path><path fill="none" stroke="black" stroke-width="0.3" stroke-opacity="1" filling="0" d="M16.893749237060547 11.2 L16.893749237060547 11.2 C17.46869659423828 11.8 18.2 12.3 18.9 12.7 L18.918750762939453 12.7 C18.693750381469727 12.7 18.5 12.7 18.2 12.8 L13.434374809265137 12.8 L8.625 12.8 C8.40000057220459 12.7 8.2 12.7 8 12.7 L7.950000286102295 12.7 C8.70057201385498 12.3 9.4 11.8 10 11.2 L16.893749237060547 11.2"></path><path fill="none" stroke="black" stroke-width="0.3" stroke-opacity="1" filling="0" d="M7.528125286102295 11.7 L7.528125286102295 11.7 C7.528125286102295 13.1 7.5 13.1 7.5 11.7 L7.528125286102295 11.7"></path><path fill="none" stroke="black" stroke-width="0.3" stroke-opacity="1" filling="0" d="M19.340625762939453 11.7 L19.340625762939453 11.7 C19.340625762939453 13.1 19.3 13.1 19.3 11.7 L19.340625762939453 11.7"></path><path fill="none" stroke="black" stroke-width="0.3" stroke-opacity="1" filling="0" d="M8.625 12.8 L13.434374809265137 12.8 L18.243749618530273 12.8 L18.243749618530273 15.5 L13.434374809265137 15.5 L8.625 15.5 L8.625 12.8"></path><path fill="none" stroke="black" stroke-width="0.3" stroke-opacity="1" filling="0" d="M8.878125190734863 13 L13.434375762939453 13 L17.990625381469727 13 L17.990625381469727 15.2 L13.434375762939453 15.2 L8.878125190734863 15.2"></path><path fill="none" stroke="black" stroke-width="0.3" stroke-opacity="1" filling="0" d="M17.737499237060547 13.3 L17.737499237060547 14.9 L13.434374809265137 14.9 L9.131250381469727 14.9 L9.131250381469727 13.3 L13.434374809265137 13.3 L17.737499237060547 13.3"></path><path fill="none" stroke="black" stroke-width="0.3" stroke-opacity="1" filling="0" d="M11.324999809265137 13.9 L12.337499618530273 13.9 L12.337499618530273 14.9 L11.324999809265137 14.9"></path><path fill="none" stroke="black" stroke-width="0.3" stroke-opacity="1" filling="0" d="M14.53125 13.9 L15.543749809265137 13.9 L15.543749809265137 14.9 L14.53125 14.9"></path><path fill="none" stroke="black" stroke-width="0.3" stroke-opacity="1" filling="0" d="M8.625 14.9 L13.434374809265137 14.9 L18.243749618530273 14.9 C18.96334457397461 15.6 19.9 16.3 20.9 16.6 L20.943748474121094 16.6 C20.573701858520508 17.1 20 17.4 19.3 17.6 L13.940625190734863 17.6 C13.60312557220459 17.6 13.3 17.6 12.9 17.6 L7.528125286102295 17.6 C6.913546562194824 17.4 6.3 17.1 5.9 16.6 L5.925000190734863 16.6 C6.942870140075684 16.3 7.9 15.6 8.6 14.9 L8.625 14.9"></path><path fill="none" stroke="black" stroke-width="0.3" stroke-opacity="1" filling="0" d="M8.793749809265137 15.2 L13.434375762939453 15.2 L18.075000762939453 15.2 C18.7982234954834 15.9 19.7 16.5 20.6 16.8 L20.606250762939453 16.8 C20.184375762939453 17 19.8 17.1 19.3 17.3 L13.434375762939453 17.3 L7.528125286102295 17.3 C7.106250286102295 17.1 6.7 17 6.3 16.8 L6.262500286102295 16.8 C7.194486618041992 16.5 8.1 15.9 8.8 15.2 L8.793749809265137 15.2"></path><path fill="none" stroke="black" stroke-width="0.3" stroke-opacity="1" filling="0" d="M17.90625 15.5 L17.90625 15.5 C18.502870559692383 16.1 19.2 16.6 19.9 17 L19.931249618530273 17 C19.734375 17 19.5 17 19.3 17.1 L13.434375762939453 17.1 L7.528125286102295 17.1 C7.331250190734863 17 7.1 17 6.9 17 L6.9375 17 C7.657828330993652 16.6 8.3 16.1 8.9 15.5 L13.392187118530273 15.5 L17.90625 15.5"></path><path fill="none" stroke="black" stroke-width="0.3" stroke-opacity="1" filling="0" d="M6.431250095367432 16 L6.431250095367432 16 C6.431250095367432 17.4 6.4 17.4 6.4 16 L6.431250095367432 16"></path><path fill="none" stroke="black" stroke-width="0.3" stroke-opacity="1" filling="0" d="M20.353124618530273 16 L20.353124618530273 16 C20.353124618530273 17.4 20.4 17.4 20.4 16 L20.353124618530273 16"></path><path fill="none" stroke="black" stroke-width="0.3" stroke-opacity="1" filling="0" d="M7.528125286102295 17.1 L13.434375762939453 17.1 L19.340625762939453 17.1 L19.340625762939453 20.3 L13.434375762939453 20.3 L7.528125286102295 20.3 L7.528125286102295 17.1"></path><path fill="none" stroke="black" stroke-width="0.3" stroke-opacity="1" filling="0" d="M7.78125 17.3 L13.434374809265137 17.3 L19.087499618530273 17.3 L19.087499618530273 20 L13.434374809265137 20 L7.78125 20"></path><path fill="none" stroke="black" stroke-width="0.3" stroke-opacity="1" filling="0" d="M18.75 17.6 L18.75 19.8 L13.392187118530273 19.8 L8.034375190734863 19.8 L8.034375190734863 17.6 L13.392187118530273 17.6 L18.75 17.6"></path><path fill="none" stroke="black" stroke-width="0.3" stroke-opacity="1" filling="0" d="M11.324999809265137 18.2 L15.543749809265137 18.2 L15.543749809265137 20.3 L11.324999809265137 20.3 L11.324999809265137 18.2"></path><path fill="none" stroke="black" stroke-width="0.3" stroke-opacity="1" filling="0" d="M11.578125 18.4 L15.290624618530273 18.4 L15.290624618530273 20 L11.578125 20"></path><path fill="none" stroke="black" stroke-width="0.3" stroke-opacity="1" filling="0" d="M15.037500381469727 18.7 L15.037500381469727 19.8 L11.831250190734863 19.8 L11.831250190734863 18.7 L15.037500381469727 18.7"></path></svg>