<svg xmlns="http://www.w3.org/2000/svg" viewBox="0 0 24 24" height="200px" width="200px"><path fill="none" stroke="black" stroke-width="0.3" stroke-opacity="1" filling="0" d="M15.034799575805664 15 L15.034799575805664 15 C15.133174896240234 17.3 14.7 18.7 13.5 20.8 L9.33240032196045 20.8 L9.33240032196045 13.6 L13.695599555969238 13.6 L15.034799575805664 15"></path><path fill="none" stroke="black" stroke-width="0.3" stroke-opacity="1" filling="0" d="M16.97879981994629 18.2 L16.97879981994629 18.2 C16.599411010742188 19.8 15.6 22 14.1 22.8 L8.360400199890137 22.8 C8.029200553894043 22.5 7.7 22.1 7.4 21.8 L7.366800308227539 15.4 L7.366800308227539 9 L9.33240032196045 9 L9.33240032196045 11.7 L14.084400177001953 11.7 C14.307600021362305 11.7 14.5 11.8 14.8 11.9 L16.67639923095703 13.8 C17.321468353271484 15.1 17 16.7 17 18.2 L16.97879981994629 18.2"></path></svg>