<svg xmlns="http://www.w3.org/2000/svg" viewBox="0 0 24 24" height="200px" width="200px"><path fill="none" stroke="black" stroke-width="0.3" stroke-opacity="1" filling="0" d="M8.118749618530273 6.6 L15.037500381469727 6.6 L18.412500381469727 10.1 L18.412500381469727 14.7 L18.412500381469727 19.4 L13.265625 19.4 L8.118749618530273 19.4 L8.118749618530273 13 L8.118749618530273 6.6"></path><path fill="none" stroke="black" stroke-width="0.3" stroke-opacity="1" filling="0" d="M14.109375 6.6 L15.037500381469727 6.6 L18.412500381469727 10.1 L18.412500381469727 10.9 L14.109375 10.9 L14.109375 6.6"></path><path fill="none" stroke="black" stroke-width="0.3" stroke-opacity="1" filling="0" d="M8.540624618530273 7 L14.868749618530273 7 L17.990625381469727 10.2 L17.990625381469727 14.6 L17.990625381469727 19 L14.840625762939453 15 L11.690625190734863 11 L8.540624618530273 7"></path><path fill="none" stroke="black" stroke-width="0.3" stroke-opacity="1" filling="0" d="M14.53125 7 L14.868749618530273 7 L17.990625381469727 10.5 L14.53125 7"></path><path fill="none" stroke="black" stroke-width="0.3" stroke-opacity="1" filling="0" d="M14.699999809265137 7.4 L17.568750381469727 10.4 L17.568750381469727 14.5 L17.568750381469727 18.6 L13.265625 18.6 L8.962499618530273 18.6 L8.962499618530273 13 L8.962499618530273 7.4 L14.699999809265137 7.4"></path><path fill="none" stroke="black" stroke-width="0.3" stroke-opacity="1" filling="0" d="M14.953125 7.8 L17.146875381469727 10.1 L14.953125 10.1 L14.953125 7.8"></path><path fill="none" stroke="black" stroke-width="0.3" stroke-opacity="1" filling="0" d="M13.181249618530273 12.2 L13.181249618530273 12.2 C15.007430076599121 12.6 14.6 13.6 13.2 14.4 L13.181249618530273 15.6 L12.506250381469727 15.6 L12.506250381469727 12.3 C12.731249809265137 12.2 13 12.2 13.2 12.2 L13.181249618530273 12.2"></path><path fill="none" stroke="black" stroke-width="0.3" stroke-opacity="1" filling="0" d="M15.796875 12.2 L15.796875 12.2 C15.99375057220459 12.2 16.2 12.3 16.4 12.3 L16.303125381469727 12.8 C15.99375057220459 12.9 15.4 12.8 15.4 13.1 C15.371481895446777 13.7 16.3 14 16.3 14.6 C16.292577743530273 15.1 15.8 15.5 15.4 15.7 C15.174043655395508 15.8 14.9 15.6 14.7 15.5 L14.784375190734863 15 C15.037500381469727 14.8 15.5 14.8 15.5 14.4 C15.543749809265137 14 14.7 13.7 14.8 13.2 C14.83708381652832 12.7 15.5 12.5 15.8 12.2 L15.796875 12.2"></path><path fill="none" stroke="black" stroke-width="0.3" stroke-opacity="1" filling="0" d="M10.3125 12.3 L11.746874809265137 12.3 L11.746874809265137 12.8 L10.903124809265137 12.8 L10.903124809265137 13.6 L11.746874809265137 13.6 L11.746874809265137 14.1 L10.903124809265137 14.1 L10.903124809265137 15 L11.831250190734863 15 L11.831250190734863 15.6 L10.3125 15.6 L10.3125 12.3"></path><path fill="none" stroke="black" stroke-width="0.3" stroke-opacity="1" filling="0" d="M13.350000381469727 12.8 L13.350000381469727 12.8 C13.293749809265137 13.1 13.2 13.5 13.2 13.9 L13.181249618530273 12.8 C13.237500190734863 12.8 13.3 12.8 13.4 12.8 L13.350000381469727 12.8"></path></svg>